#!OML:ASF X:\für Bonn\!DataBase\2005_08_12_Daniel\c3d\Daniel.ASF
:FULLY-SPECIFIED
:DEGREES
271
root 1.77393 17.2389 -0.888529 170.954 -2.71322 -178.573
lowerback 29.3187 -2.74495 7.13387
upperback 7.41804 -3.36388 1.01918
thorax -7.97659 -2.51843 -1.66386
lowerneck 5.81373 -2.75763 0.906919
upperneck 21.5519 -1.22257 -0.252513
head 5.55616 0.379102 -0.179411
rclavicle -2.16675e-014 -2.18663e-014
rhumerus -25.8515 -3.11572 -87.7281
rradius 21.27
rwrist 10.2323
rhand -18.1073 15.1898
rfingers 7.12502
rthumb 8.16681 -14.6324
lclavicle -2.16675e-014 -2.18663e-014
lhumerus -19.4977 16.5423 90.5661
lradius 39.5128
lwrist -12.5199
lhand -11.3301 -8.0178
lfingers 7.12502
lthumb 14.7025 21.4409
rfemur -2.03322 6.83293 24.3667
rtibia 32.5507
rfoot -29.4256 -1.24132
rtoes -11.3542
lfemur -13.0992 -6.8483 -12.8916
ltibia 53.5048
lfoot -20.4733 7.68506
ltoes -19.0353
272
root 1.78584 17.245 -0.94699 170.744 -2.58965 -178.637
lowerback 29.0339 -2.72952 7.08014
upperback 7.39651 -3.36284 1.03013
thorax -7.86268 -2.50813 -1.63583
lowerneck 5.92097 -2.66927 0.778968
upperneck 21.7699 -1.03191 -0.301945
head 5.61004 0.481113 -0.165253
rclavicle 2.98177e-014 -1.78906e-014
rhumerus -26.3681 -3.0852 -87.5461
rradius 21.1244
rwrist 10.2733
rhand -18.1072 15.2386
rfingers 7.12502
rthumb 8.16691 -14.5836
lclavicle 2.98177e-014 -1.78906e-014
lhumerus -19.6571 16.7782 90.6222
lradius 39.0679
lwrist -13.2556
lhand -10.844 -8.11315
lfingers 7.12502
lthumb 15.1708 21.3107
rfemur -1.34035 7.1419 24.5019
rtibia 32.1548
rfoot -29.435 -1.49309
rtoes -11.425
lfemur -13.4522 -6.62567 -12.8945
ltibia 54.5592
lfoot -19.4928 7.64964
ltoes -19.3366
273
root 1.7977 17.2481 -1.00597 170.56 -2.46737 -178.718
lowerback 28.7305 -2.70109 7.02982
upperback 7.37786 -3.34514 1.01657
thorax -7.7365 -2.48866 -1.64433
lowerneck 6.01673 -2.62103 0.80531
upperneck 21.9728 -0.871825 -0.503413
head 5.65855 0.570177 -0.226348
rclavicle 1.5704e-014 -5.60573e-014
rhumerus -26.8722 -3.15999 -87.3517
rradius 20.9632
rwrist 10.4398
rhand -18.1432 15.2577
rfingers 7.12502
rthumb 8.13211 -14.5658
lclavicle 1.5704e-014 -5.60573e-014
lhumerus -19.814 16.939 90.6186
lradius 38.6078
lwrist -14.0574
lhand -10.332 -8.1605
lfingers 7.12502
lthumb 15.6639 21.2254
rfemur -0.725065 7.41282 24.6152
rtibia 31.8482
rfoot -29.4891 -1.75579
rtoes -11.676
lfemur -13.852 -6.36378 -12.8974
ltibia 55.6563
lfoot -18.5392 7.52588
ltoes -19.5007
274
root 1.80937 17.2472 -1.06409 170.374 -2.36602 -178.802
lowerback 28.4563 -2.67296 6.97457
upperback 7.35514 -3.32605 1.01894
thorax -7.62727 -2.46939 -1.63081
lowerneck 6.03578 -2.56936 0.751718
upperneck 22.2421 -0.709365 -0.661506
head 5.74217 0.658092 -0.259955
rclavicle 3.18055e-015 2.82274e-014
rhumerus -27.3424 -3.42945 -87.048
rradius 20.7211
rwrist 10.7475
rhand -18.1489 15.359
rfingers 7.12502
rthumb 8.12661 -14.4647
lclavicle 3.18055e-015 2.82274e-014
lhumerus -19.9855 17.083 90.5956
lradius 38.1249
lwrist -14.9202
lhand -9.80878 -8.28292
lfingers 7.12502
lthumb 16.1678 21.0628
rfemur -0.166663 7.67585 24.7204
rtibia 31.6438
rfoot -29.5578 -1.9485
rtoes -11.7189
lfemur -14.2779 -6.09109 -12.8963
ltibia 56.7631
lfoot -17.5867 7.27989
ltoes -19.35
